<svg width="33" height="31" viewBox="0 0 33 31" fill="none" xmlns="http://www.w3.org/2000/svg">
<path fill-rule="evenodd" clip-rule="evenodd" d="M0.601551 0.423238C0.932479 0.656076 1.30475 0.998842 1.42895 1.18507C1.66598 1.54036 3.36361 4.75381 6.16911 10.1577C7.08756 11.9269 8.19856 14.0346 8.63801 14.8416C9.07745 15.6485 10.5543 18.4419 11.9201 21.049C13.2858 23.6562 15.0204 26.9617 15.775 28.3947L17.1468 31L17.5068 30.3698C17.7047 30.0232 18.2997 29.074 18.8289 28.2605L19.7907 26.7814L18.3415 24.0845C15.7338 19.2324 8.75384 5.71597 6.82186 1.7776L5.94983 0L2.97492 0L0 0L0.601551 0.423238ZM11.8419 0.0424375C11.8419 0.0656874 12.0167 0.383172 12.2303 0.747834C12.9749 2.01845 16.0574 7.87291 18.1358 11.9635C19.287 14.2293 20.6229 16.8493 21.1046 17.7857C21.5861 18.7223 22.064 19.7254 22.1665 20.0148C22.3792 20.6162 22.5128 20.6748 22.6594 20.2308C22.7158 20.06 23.2941 19.097 23.9444 18.0904C24.5946 17.084 25.1268 16.2309 25.1268 16.1946C25.1268 16.1268 22.464 11.0114 19.5868 5.55209C18.6936 3.857 17.9209 2.27228 17.8698 2.03053C17.7882 1.64499 17.8447 1.52095 18.3284 1.02266C18.6318 0.710138 19.052 0.352134 19.262 0.227194L19.6442 0L15.743 0C13.5975 0 11.8419 0.0190747 11.8419 0.0424375ZM23.3012 0.141079C23.4486 0.278321 24.8297 2.98896 25.2134 3.89379C25.3186 4.14209 25.9081 5.38641 26.5233 6.65895C27.3546 8.37797 27.6706 8.91464 27.7529 8.74692C27.8136 8.62277 28.429 7.42924 29.1203 6.09463C29.8116 4.76002 30.743 2.93242 31.1902 2.03335C31.6374 1.13428 32.0682 0.349539 32.1475 0.289609C32.2267 0.229678 32.2917 0.139949 32.2917 0.0902894C32.2917 0.0406295 30.2347 0 27.7208 0C24.0827 0 23.1806 0.0287802 23.3012 0.141079Z" fill="#242126"/>
</svg>
